<?xml version="1.0" encoding="utf-8"?>
<!-- Generator: Adobe Illustrator 21.1.0, SVG Export Plug-In . SVG Version: 6.00 Build 0)  -->
<svg version="1.1"
	 id="svg6615" inkscape:version="0.92.1 r15371" sodipodi:docname="b_castle.svg" xmlns:cc="http://creativecommons.org/ns#" xmlns:dc="http://purl.org/dc/elements/1.1/" xmlns:inkscape="http://www.inkscape.org/namespaces/inkscape" xmlns:rdf="http://www.w3.org/1999/02/22-rdf-syntax-ns#" xmlns:sodipodi="http://sodipodi.sourceforge.net/DTD/sodipodi-0.dtd" xmlns:svg="http://www.w3.org/2000/svg"
	 xmlns="http://www.w3.org/2000/svg" xmlns:xlink="http://www.w3.org/1999/xlink" x="0px" y="0px" viewBox="0 0 288 288"
	 style="enable-background:new 0 0 288 288;" xml:space="preserve">
<style type="text/css">
	.st0{stroke:#FFFFFF;stroke-width:10;}
	.st1{fill:#FFFFFF;}
</style>
<sodipodi:namedview  bordercolor="#666666" borderopacity="1.0" id="base" inkscape:current-layer="layer1" inkscape:cx="-84.285714" inkscape:cy="560" inkscape:document-units="mm" inkscape:pageopacity="0.0" inkscape:pageshadow="2" inkscape:window-height="1056" inkscape:window-maximized="1" inkscape:window-width="1855" inkscape:window-x="65" inkscape:window-y="24" inkscape:zoom="0.24748737" pagecolor="#ffffff" showgrid="false">
	</sodipodi:namedview>
<g id="layer1" inkscape:groupmode="layer" inkscape:label="Layer 1">
	<g id="g5028" transform="translate(715.13094,55.184519)">
		<ellipse id="ellipse4491" class="st0" cx="-572.1" cy="88.8" rx="135" ry="135"/>
		<g id="g4559" transform="matrix(0.81524157,0,0,0.82149364,-114.94723,16.042198)">
			<rect id="rect4499" x="-580.6" y="140.4" class="st1" width="39.5" height="65.8"/>
			<rect id="rect4503" x="-580.6" y="-29.1" class="st1" width="39.5" height="65.8"/>
			<rect id="rect4507" x="-682.6" y="66.2" class="st1" width="65" height="39.5"/>
			<rect id="rect4509" x="-504.8" y="66.2" class="st1" width="65.8" height="39.5"/>
			<polygon id="rect4525" class="st1" points="-651.6,145.6 -623.9,119.2 -597.5,146.9 -625.2,173.3 			"/>
			<polygon id="rect4527" class="st1" points="-524.6,24.9 -496.9,-1.6 -470.5,26.1 -498.1,52.5 			"/>
			<polygon id="rect4529" class="st1" points="-499.3,175.1 -526.3,148.1 -499.3,121 -472.2,148 			"/>
			<polygon id="rect4531" class="st1" points="-622.8,52.2 -649.9,25.2 -622.8,-1.9 -595.7,25.2 			"/>
		</g>
	</g>
</g>
</svg>
