<?xml version="1.0" encoding="utf-8"?>
<!-- Generator: Adobe Illustrator 21.1.0, SVG Export Plug-In . SVG Version: 6.00 Build 0)  -->
<svg version="1.1"
	 id="svg10327" inkscape:version="0.92.1 r15371" sodipodi:docname="b_queen.svg" xmlns:cc="http://creativecommons.org/ns#" xmlns:dc="http://purl.org/dc/elements/1.1/" xmlns:inkscape="http://www.inkscape.org/namespaces/inkscape" xmlns:rdf="http://www.w3.org/1999/02/22-rdf-syntax-ns#" xmlns:sodipodi="http://sodipodi.sourceforge.net/DTD/sodipodi-0.dtd" xmlns:svg="http://www.w3.org/2000/svg"
	 xmlns="http://www.w3.org/2000/svg" xmlns:xlink="http://www.w3.org/1999/xlink" x="0px" y="0px" viewBox="0 0 288 288"
	 style="enable-background:new 0 0 288 288;" xml:space="preserve">
<style type="text/css">
	.st0{stroke:#FFFFFD;stroke-width:10;}
	.st1{fill:#FFFFF3;}
</style>
<sodipodi:namedview  bordercolor="#666666" borderopacity="1.0" id="base" inkscape:current-layer="layer1" inkscape:cx="-84.285714" inkscape:cy="560" inkscape:document-units="mm" inkscape:pageopacity="0.0" inkscape:pageshadow="2" inkscape:window-height="1056" inkscape:window-maximized="1" inkscape:window-width="1855" inkscape:window-x="65" inkscape:window-y="24" inkscape:zoom="0.35" pagecolor="#ffffff" showgrid="false">
	</sodipodi:namedview>
<g id="layer1" inkscape:groupmode="layer" inkscape:label="Layer 1">
	<g id="g5080" transform="translate(721.93989,-348.515)">
		<ellipse id="ellipse4712" class="st0" cx="-578.6" cy="492.8" rx="135" ry="135"/>
		<g id="g4771" transform="translate(111.03033,30.162526)">
			<path id="path4726" inkscape:connector-curvature="0" sodipodi:nodetypes="cccc" class="st1" d="M-688.9,375.1
				c0,0-9.5,20.4-9.3,78.9h17.2C-680.9,395.6-688.9,375.1-688.9,375.1z"/>
			<path id="path4732" inkscape:connector-curvature="0" sodipodi:nodetypes="cccc" class="st1" d="M-777.1,461.9
				c0,0,20.4,9.5,78.9,9.3V454C-756.6,453.9-777.1,461.9-777.1,461.9z"/>
			<path id="path4738" inkscape:connector-curvature="0" sodipodi:nodetypes="cccc" class="st1" d="M-690.3,550.1
				c0,0,9.5-20.4,9.3-78.9h-17.2C-698.3,529.6-690.3,550.1-690.3,550.1z"/>
			<path id="path4740" inkscape:connector-curvature="0" sodipodi:nodetypes="cccc" class="st1" d="M-602.2,463.3
				c0,0-20.4-9.5-78.9-9.3v17.2C-622.6,471.3-602.2,463.3-602.2,463.3z"/>
			<path id="path4742" inkscape:connector-curvature="0" sodipodi:nodetypes="cccc" class="st1" d="M-627.5,402.5
				c0,0-17.9,4.5-59.2,46l12.2,12.2C-633.1,419.4-627.5,402.5-627.5,402.5z"/>
			<path id="path4744" inkscape:connector-curvature="0" sodipodi:nodetypes="cccc" class="st1" d="M-750.4,400.8
				c0,0,4.5,17.9,46,59.2l12.2-12.2C-733.5,406.5-750.4,400.8-750.4,400.8L-750.4,400.8z"/>
			
				<path id="path4746" inkscape:connector-curvature="0" inkscape:transform-center-y="-13.295312" sodipodi:nodetypes="cccc" class="st1" d="
				M-751.4,523.3c0,0,17.9-4.5,59.2-46l-12.2-12.2C-745.8,506.3-751.4,523.3-751.4,523.3z"/>
			
				<path id="path4748" inkscape:connector-curvature="0" inkscape:transform-center-x="13.29531" inkscape:transform-center-y="-2e-06" sodipodi:nodetypes="cccc" class="st1" d="
				M-628.8,524.4c0,0-4.5-17.9-46-59.2l-12.2,12.2C-645.8,518.8-628.8,524.4-628.8,524.4L-628.8,524.4z"/>
			<rect id="rect4750" x="-703.6" y="448.6" class="st1" width="27" height="27.9"/>
		</g>
	</g>
</g>
</svg>
