<?xml version="1.0" encoding="utf-8"?>
<!-- Generator: Adobe Illustrator 21.1.0, SVG Export Plug-In . SVG Version: 6.00 Build 0)  -->
<svg version="1.1"
	 id="svg7249" inkscape:version="0.92.1 r15371" sodipodi:docname="w_castle.svg" xmlns:cc="http://creativecommons.org/ns#" xmlns:dc="http://purl.org/dc/elements/1.1/" xmlns:inkscape="http://www.inkscape.org/namespaces/inkscape" xmlns:rdf="http://www.w3.org/1999/02/22-rdf-syntax-ns#" xmlns:sodipodi="http://sodipodi.sourceforge.net/DTD/sodipodi-0.dtd" xmlns:svg="http://www.w3.org/2000/svg"
	 xmlns="http://www.w3.org/2000/svg" xmlns:xlink="http://www.w3.org/1999/xlink" x="0px" y="0px" viewBox="0 0 288 288"
	 style="enable-background:new 0 0 288 288;" xml:space="preserve">
<style type="text/css">
	.st0{fill:#FFFFFF;stroke:#000000;stroke-width:10;}
	.st1{fill:#000006;}
</style>
<sodipodi:namedview  bordercolor="#666666" borderopacity="1.0" id="base" inkscape:current-layer="layer1" inkscape:cx="-84.285714" inkscape:cy="560" inkscape:document-units="mm" inkscape:pageopacity="0.0" inkscape:pageshadow="2" inkscape:window-height="1056" inkscape:window-maximized="1" inkscape:window-width="1855" inkscape:window-x="65" inkscape:window-y="24" inkscape:zoom="0.35" pagecolor="#ffffff" showgrid="false">
	</sodipodi:namedview>
<g id="layer1" inkscape:groupmode="layer" inkscape:label="Layer 1">
	<g id="g5040" transform="translate(592.81788,55.260108)">
		<ellipse id="ellipse4580" class="st0" cx="-448.8" cy="88.7" rx="135" ry="135"/>
		<g id="g4598" transform="matrix(0.81524157,0,0,0.82149364,14.925352,15.966605)">
			<rect id="rect4582" x="-588.6" y="140.4" class="st1" width="39.5" height="65.8"/>
			<rect id="rect4584" x="-588.6" y="-29.1" class="st1" width="39.5" height="65.8"/>
			<rect id="rect4586" x="-690.6" y="66.2" class="st1" width="65" height="39.5"/>
			<rect id="rect4588" x="-512.9" y="66.2" class="st1" width="65.8" height="39.5"/>
			<polygon id="rect4590" class="st1" points="-659.7,145.6 -632,119.2 -605.6,146.9 -633.3,173.3 			"/>
			<polygon id="rect4592" class="st1" points="-532.6,24.9 -504.9,-1.6 -478.5,26.1 -506.2,52.5 			"/>
			<polygon id="rect4594" class="st1" points="-507.3,175.1 -534.4,148.1 -507.3,121 -480.3,148 			"/>
			<polygon id="rect4596" class="st1" points="-630.8,52.2 -657.9,25.2 -630.9,-1.9 -603.8,25.2 			"/>
		</g>
	</g>
</g>
</svg>
