<?xml version="1.0" encoding="utf-8"?>
<!-- Generator: Adobe Illustrator 21.1.0, SVG Export Plug-In . SVG Version: 6.00 Build 0)  -->
<svg version="1.1"
	 id="svg10956" inkscape:version="0.92.1 r15371" sodipodi:docname="w_queen.svg" xmlns:cc="http://creativecommons.org/ns#" xmlns:dc="http://purl.org/dc/elements/1.1/" xmlns:inkscape="http://www.inkscape.org/namespaces/inkscape" xmlns:rdf="http://www.w3.org/1999/02/22-rdf-syntax-ns#" xmlns:sodipodi="http://sodipodi.sourceforge.net/DTD/sodipodi-0.dtd" xmlns:svg="http://www.w3.org/2000/svg"
	 xmlns="http://www.w3.org/2000/svg" xmlns:xlink="http://www.w3.org/1999/xlink" x="0px" y="0px" viewBox="0 0 288 288"
	 style="enable-background:new 0 0 288 288;" xml:space="preserve">
<style type="text/css">
	.st0{fill:#FFFFFE;stroke:#000000;stroke-width:10;}
	.st1{fill:#000002;}
</style>
<sodipodi:namedview  bordercolor="#666666" borderopacity="1.0" id="base" inkscape:current-layer="layer1" inkscape:cx="-84.285714" inkscape:cy="560" inkscape:document-units="mm" inkscape:pageopacity="0.0" inkscape:pageshadow="2" inkscape:window-height="1056" inkscape:window-maximized="1" inkscape:window-width="1855" inkscape:window-x="65" inkscape:window-y="24" inkscape:zoom="0.35" pagecolor="#ffffff" showgrid="false">
	</sodipodi:namedview>
<g id="layer1" inkscape:groupmode="layer" inkscape:label="Layer 1">
	<g id="g5093" transform="translate(594.32441,-347.23705)">
		<ellipse id="ellipse4773" class="st0" cx="-450.3" cy="491.2" rx="135" ry="135"/>
		<g id="g4793" transform="translate(240.91368,30.396472)">
			<path id="path4775" inkscape:connector-curvature="0" sodipodi:nodetypes="cccc" class="st1" d="M-690.5,373.4
				c0,0-9.5,20.4-9.3,78.9h17.2C-682.5,393.8-690.5,373.4-690.5,373.4z"/>
			<path id="path4777" inkscape:connector-curvature="0" sodipodi:nodetypes="cccc" class="st1" d="M-778.7,460.1
				c0,0,20.4,9.5,78.9,9.3v-17.2C-758.3,452.1-778.7,460.1-778.7,460.1z"/>
			<path id="path4779" inkscape:connector-curvature="0" sodipodi:nodetypes="cccc" class="st1" d="M-691.9,548.3
				c0,0,9.5-20.4,9.3-78.9h-17.2C-699.9,527.9-691.9,548.3-691.9,548.3z"/>
			<path id="path4781" inkscape:connector-curvature="0" sodipodi:nodetypes="cccc" class="st1" d="M-603.8,461.5
				c0,0-20.4-9.5-78.9-9.3v17.2C-624.2,469.5-603.8,461.5-603.8,461.5z"/>
			<path id="path4783" inkscape:connector-curvature="0" sodipodi:nodetypes="cccc" class="st1" d="M-629.1,400.7
				c0,0-17.9,4.5-59.2,46l12.2,12.2C-634.7,417.6-629.1,400.7-629.1,400.7z"/>
			<path id="path4785" inkscape:connector-curvature="0" sodipodi:nodetypes="cccc" class="st1" d="M-752,399.1
				c0,0,4.5,17.9,46,59.2l12.2-12.2C-735.1,404.7-752,399.1-752,399.1L-752,399.1z"/>
			
				<path id="path4787" inkscape:connector-curvature="0" inkscape:transform-center-y="-13.295312" sodipodi:nodetypes="cccc" class="st1" d="
				M-753.1,521.5c0,0,17.9-4.5,59.2-46l-12.2-12.2C-747.5,504.6-753.1,521.5-753.1,521.5z"/>
			
				<path id="path4789" inkscape:connector-curvature="0" inkscape:transform-center-x="13.29531" inkscape:transform-center-y="-2e-06" sodipodi:nodetypes="cccc" class="st1" d="
				M-630.5,522.6c0,0-4.5-17.9-46-59.2l-12.2,12.2C-647.4,517-630.5,522.6-630.5,522.6L-630.5,522.6z"/>
			<rect id="rect4791" x="-705.2" y="446.8" class="st1" width="27" height="27.9"/>
		</g>
	</g>
</g>
</svg>
